<svg width="94" height="12" viewBox="0 0 94 12" fill="none" xmlns="http://www.w3.org/2000/svg">
<path d="M4.942 7.822V2.488H4.914L1.218 7.822H4.942ZM0.42 7.71L4.956 1.2H5.754V7.822H7.224V8.564H5.754V11H4.942V8.564H0.42V7.71ZM8.4933 1.326H14.7933V2.138C14.4853 2.45533 14.1166 2.88467 13.6873 3.426C13.258 3.958 12.838 4.59733 12.4273 5.344C12.026 6.08133 11.6713 6.926 11.3633 7.878C11.0646 8.82067 10.8873 9.86133 10.8313 11H9.8793C9.9353 10.1693 10.0473 9.38533 10.2153 8.648C10.3926 7.91067 10.64 7.192 10.9573 6.492C11.284 5.78267 11.6853 5.07333 12.1613 4.364C12.6466 3.65467 13.23 2.91267 13.9113 2.138H8.4933V1.326ZM16.9166 11V9.516H18.0926V11H16.9166ZM16.9166 5.484V4H18.0926V5.484H16.9166ZM20.7991 7.878C20.7804 8.27 20.8224 8.62467 20.9251 8.942C21.0371 9.25933 21.1957 9.53 21.4011 9.754C21.6157 9.978 21.8771 10.1553 22.1851 10.286C22.5024 10.4073 22.8571 10.468 23.2491 10.468C23.5757 10.468 23.8884 10.4213 24.1871 10.328C24.4857 10.2347 24.7517 10.0947 24.9851 9.908C25.2184 9.72133 25.4051 9.49267 25.5451 9.222C25.6851 8.95133 25.7551 8.64333 25.7551 8.298C25.7551 7.94333 25.6944 7.64 25.5731 7.388C25.4517 7.12667 25.2837 6.912 25.0691 6.744C24.8544 6.56667 24.6024 6.436 24.3131 6.352C24.0331 6.268 23.7297 6.226 23.4031 6.226H22.6611V5.484H23.4031C23.6271 5.484 23.8557 5.45133 24.0891 5.386C24.3317 5.31133 24.5464 5.204 24.7331 5.064C24.9291 4.91467 25.0877 4.728 25.2091 4.504C25.3304 4.28 25.3911 4.014 25.3911 3.706C25.3911 3.37933 25.3351 3.104 25.2231 2.88C25.1111 2.64667 24.9571 2.45533 24.7611 2.306C24.5651 2.14733 24.3364 2.03533 24.0751 1.97C23.8231 1.89533 23.5477 1.858 23.2491 1.858C22.8851 1.858 22.5631 1.91867 22.2831 2.04C22.0031 2.16133 21.7651 2.334 21.5691 2.558C21.3824 2.77267 21.2424 3.034 21.1491 3.342C21.0557 3.64067 21.0137 3.972 21.0231 4.336H20.1411C20.1411 3.86933 20.2111 3.44 20.3511 3.048C20.5004 2.656 20.7057 2.32 20.9671 2.04C21.2377 1.75067 21.5644 1.52667 21.9471 1.368C22.3297 1.2 22.7591 1.116 23.2351 1.116C23.6177 1.116 23.9911 1.16733 24.3551 1.27C24.7191 1.36333 25.0411 1.51267 25.3211 1.718C25.6104 1.914 25.8391 2.17067 26.0071 2.488C26.1844 2.796 26.2731 3.16933 26.2731 3.608C26.2731 4.14 26.1284 4.602 25.8391 4.994C25.5591 5.386 25.1531 5.64733 24.6211 5.778V5.806C25.2651 5.90867 25.7597 6.17933 26.1051 6.618C26.4597 7.04733 26.6371 7.584 26.6371 8.228C26.6371 8.71333 26.5437 9.14267 26.3571 9.516C26.1797 9.88 25.9371 10.188 25.6291 10.44C25.3211 10.692 24.9617 10.8787 24.5511 11C24.1404 11.1307 23.7111 11.196 23.2631 11.196C22.7591 11.196 22.2924 11.1213 21.8631 10.972C21.4431 10.8227 21.0791 10.608 20.7711 10.328C20.4724 10.048 20.2437 9.70267 20.0851 9.292C19.9357 8.88133 19.8797 8.41 19.9171 7.878H20.7991ZM31.1264 5.386C31.397 5.39533 31.6584 5.36733 31.9104 5.302C32.1624 5.22733 32.3817 5.11533 32.5684 4.966C32.7644 4.81667 32.9184 4.62533 33.0304 4.392C33.1517 4.15867 33.2124 3.88333 33.2124 3.566C33.2124 3.286 33.1564 3.03867 33.0444 2.824C32.9417 2.60933 32.797 2.432 32.6104 2.292C32.4237 2.152 32.2044 2.04467 31.9524 1.97C31.7004 1.89533 31.425 1.858 31.1264 1.858C30.8557 1.858 30.5944 1.89533 30.3424 1.97C30.0904 2.04467 29.8664 2.152 29.6704 2.292C29.4744 2.432 29.3157 2.60933 29.1944 2.824C29.0824 3.03867 29.0264 3.286 29.0264 3.566C29.0264 3.89267 29.087 4.17267 29.2084 4.406C29.3297 4.63933 29.4884 4.83067 29.6844 4.98C29.8804 5.12933 30.1044 5.23667 30.3564 5.302C30.6084 5.36733 30.865 5.39533 31.1264 5.386ZM34.0944 3.566C34.0944 4.098 33.9544 4.55533 33.6744 4.938C33.3944 5.31133 33.0024 5.57267 32.4984 5.722V5.75C33.1424 5.88067 33.637 6.16533 33.9824 6.604C34.3277 7.03333 34.5004 7.584 34.5004 8.256C34.5004 8.75067 34.4117 9.18467 34.2344 9.558C34.057 9.922 33.8144 10.2253 33.5064 10.468C33.1984 10.7107 32.839 10.8927 32.4284 11.014C32.027 11.1353 31.593 11.196 31.1264 11.196C30.669 11.196 30.235 11.1353 29.8244 11.014C29.4137 10.8927 29.0544 10.7107 28.7464 10.468C28.4384 10.2253 28.1957 9.922 28.0184 9.558C27.841 9.18467 27.7524 8.75067 27.7524 8.256C27.771 7.612 27.953 7.06133 28.2984 6.604C28.6437 6.14667 29.1244 5.862 29.7404 5.75V5.722C29.227 5.56333 28.8304 5.302 28.5504 4.938C28.2797 4.56467 28.1444 4.10733 28.1444 3.566C28.1444 3.146 28.2284 2.782 28.3964 2.474C28.5737 2.166 28.8024 1.914 29.0824 1.718C29.3624 1.51267 29.6797 1.36333 30.0344 1.27C30.389 1.16733 30.7484 1.116 31.1124 1.116C31.4764 1.116 31.8357 1.16733 32.1904 1.27C32.545 1.36333 32.8624 1.51267 33.1424 1.718C33.4317 1.914 33.6604 2.166 33.8284 2.474C34.0057 2.782 34.0944 3.146 34.0944 3.566ZM31.1264 10.468C31.4717 10.468 31.7937 10.426 32.0924 10.342C32.4004 10.2487 32.6664 10.1133 32.8904 9.936C33.1144 9.74933 33.2917 9.516 33.4224 9.236C33.553 8.956 33.6184 8.62933 33.6184 8.256C33.6184 7.90133 33.5484 7.59333 33.4084 7.332C33.2777 7.06133 33.0957 6.83733 32.8624 6.66C32.6384 6.47333 32.3724 6.338 32.0644 6.254C31.7657 6.16067 31.453 6.11867 31.1264 6.128C30.7904 6.11867 30.4684 6.156 30.1604 6.24C29.8617 6.324 29.6004 6.45933 29.3764 6.646C29.1524 6.82333 28.9704 7.04733 28.8304 7.318C28.6997 7.58867 28.6344 7.90133 28.6344 8.256C28.6344 8.62 28.6997 8.942 28.8304 9.222C28.961 9.502 29.1384 9.73533 29.3624 9.922C29.5864 10.0993 29.8477 10.2347 30.1464 10.328C30.4544 10.4213 30.781 10.468 31.1264 10.468ZM38.7422 11.196L43.0402 0.794H43.7542L39.4842 11.196H38.7422ZM48.8268 3.09C49.2094 3.08067 49.5548 3.062 49.8628 3.034C50.1801 2.99667 50.4508 2.91733 50.6748 2.796C50.9081 2.67467 51.0994 2.49267 51.2488 2.25C51.4074 1.998 51.5194 1.648 51.5847 1.2H52.2988V11H51.4168V3.72H48.8268V3.09ZM56.606 11V9.516H57.782V11H56.606ZM56.606 5.484V4H57.782V5.484H56.606ZM60.5305 8.2C60.5399 8.536 60.6052 8.844 60.7265 9.124C60.8572 9.404 61.0299 9.64667 61.2445 9.852C61.4592 10.048 61.7112 10.202 62.0005 10.314C62.2899 10.4167 62.6025 10.468 62.9385 10.468C63.3212 10.468 63.6619 10.398 63.9605 10.258C64.2592 10.1087 64.5159 9.91267 64.7305 9.67C64.9452 9.418 65.1085 9.13333 65.2205 8.816C65.3325 8.48933 65.3885 8.14867 65.3885 7.794C65.3885 7.43 65.3232 7.094 65.1925 6.786C65.0712 6.478 64.8985 6.212 64.6745 5.988C64.4599 5.75467 64.1985 5.57267 63.8905 5.442C63.5825 5.31133 63.2465 5.246 62.8825 5.246C62.4345 5.246 62.0192 5.34867 61.6365 5.554C61.2539 5.75 60.9412 6.03467 60.6985 6.408H59.9425L60.8945 1.326H65.7945V2.138H61.5105L60.8805 5.386L60.9085 5.414C61.1512 5.12467 61.4592 4.90067 61.8325 4.742C62.2059 4.58333 62.5885 4.504 62.9805 4.504C63.4845 4.504 63.9372 4.588 64.3385 4.756C64.7492 4.924 65.0945 5.15733 65.3745 5.456C65.6639 5.75467 65.8832 6.114 66.0325 6.534C66.1912 6.94467 66.2705 7.39733 66.2705 7.892C66.2705 8.368 66.1819 8.81133 66.0045 9.222C65.8272 9.62333 65.5845 9.97333 65.2765 10.272C64.9685 10.5613 64.6045 10.79 64.1845 10.958C63.7739 11.1167 63.3352 11.196 62.8685 11.196C62.4112 11.196 61.9865 11.1307 61.5945 11C61.2119 10.86 60.8759 10.664 60.5865 10.412C60.3065 10.1507 60.0825 9.83333 59.9145 9.46C59.7465 9.08667 59.6579 8.66667 59.6485 8.2H60.5305ZM73.8818 11H67.4278C67.4372 10.5147 67.5212 10.0853 67.6798 9.712C67.8385 9.33867 68.0485 9.00267 68.3098 8.704C68.5712 8.40533 68.8652 8.13467 69.1918 7.892C69.5185 7.64 69.8545 7.402 70.1998 7.178C70.5452 6.94467 70.8858 6.71133 71.2218 6.478C71.5672 6.23533 71.8752 5.97867 72.1458 5.708C72.4165 5.43733 72.6172 5.162 72.7478 4.882C72.8878 4.59267 72.9578 4.252 72.9578 3.86C72.9578 3.54267 72.8972 3.26267 72.7758 3.02C72.6638 2.768 72.5052 2.558 72.2998 2.39C72.1038 2.21267 71.8705 2.082 71.5998 1.998C71.3385 1.90467 71.0585 1.858 70.7598 1.858C70.3585 1.858 70.0132 1.93267 69.7238 2.082C69.4438 2.23133 69.2152 2.432 69.0378 2.684C68.8605 2.936 68.7298 3.22533 68.6458 3.552C68.5712 3.87867 68.5385 4.224 68.5478 4.588H67.6658C67.6565 4.084 67.7125 3.622 67.8338 3.202C67.9645 2.77267 68.1605 2.404 68.4218 2.096C68.6832 1.788 69.0098 1.55 69.4018 1.382C69.8032 1.20467 70.2698 1.116 70.8018 1.116C71.2312 1.116 71.6278 1.17667 71.9918 1.298C72.3652 1.41 72.6872 1.58267 72.9578 1.816C73.2378 2.04 73.4525 2.32467 73.6018 2.67C73.7605 3.01533 73.8398 3.41667 73.8398 3.874C73.8398 4.28467 73.7698 4.658 73.6298 4.994C73.4992 5.33 73.3172 5.638 73.0838 5.918C72.8598 6.198 72.5985 6.45933 72.2998 6.702C72.0105 6.93533 71.7025 7.15467 71.3758 7.36C71.1425 7.51867 70.8672 7.696 70.5498 7.892C70.2325 8.07867 69.9245 8.28867 69.6258 8.522C69.3365 8.75533 69.0798 9.012 68.8558 9.292C68.6318 9.56267 68.4918 9.86133 68.4358 10.188H73.8818V11ZM76.0611 11V9.516H77.2371V11H76.0611ZM76.0611 5.484V4H77.2371V5.484H76.0611ZM79.9436 7.878C79.9249 8.27 79.9669 8.62467 80.0696 8.942C80.1816 9.25933 80.3403 9.53 80.5456 9.754C80.7603 9.978 81.0216 10.1553 81.3296 10.286C81.6469 10.4073 82.0016 10.468 82.3936 10.468C82.7203 10.468 83.0329 10.4213 83.3316 10.328C83.6303 10.2347 83.8963 10.0947 84.1296 9.908C84.3629 9.72133 84.5496 9.49267 84.6896 9.222C84.8296 8.95133 84.8996 8.64333 84.8996 8.298C84.8996 7.94333 84.8389 7.64 84.7176 7.388C84.5963 7.12667 84.4283 6.912 84.2136 6.744C83.9989 6.56667 83.7469 6.436 83.4576 6.352C83.1776 6.268 82.8743 6.226 82.5476 6.226H81.8056V5.484H82.5476C82.7716 5.484 83.0003 5.45133 83.2336 5.386C83.4763 5.31133 83.6909 5.204 83.8776 5.064C84.0736 4.91467 84.2323 4.728 84.3536 4.504C84.4749 4.28 84.5356 4.014 84.5356 3.706C84.5356 3.37933 84.4796 3.104 84.3676 2.88C84.2556 2.64667 84.1016 2.45533 83.9056 2.306C83.7096 2.14733 83.4809 2.03533 83.2196 1.97C82.9676 1.89533 82.6923 1.858 82.3936 1.858C82.0296 1.858 81.7076 1.91867 81.4276 2.04C81.1476 2.16133 80.9096 2.334 80.7136 2.558C80.5269 2.77267 80.3869 3.034 80.2936 3.342C80.2003 3.64067 80.1583 3.972 80.1676 4.336H79.2856C79.2856 3.86933 79.3556 3.44 79.4956 3.048C79.6449 2.656 79.8503 2.32 80.1116 2.04C80.3823 1.75067 80.7089 1.52667 81.0916 1.368C81.4743 1.2 81.9036 1.116 82.3796 1.116C82.7623 1.116 83.1356 1.16733 83.4996 1.27C83.8636 1.36333 84.1856 1.51267 84.4656 1.718C84.7549 1.914 84.9836 2.17067 85.1516 2.488C85.3289 2.796 85.4176 3.16933 85.4176 3.608C85.4176 4.14 85.2729 4.602 84.9836 4.994C84.7036 5.386 84.2976 5.64733 83.7656 5.778V5.806C84.4096 5.90867 84.9043 6.17933 85.2496 6.618C85.6043 7.04733 85.7816 7.584 85.7816 8.228C85.7816 8.71333 85.6883 9.14267 85.5016 9.516C85.3243 9.88 85.0816 10.188 84.7736 10.44C84.4656 10.692 84.1063 10.8787 83.6956 11C83.2849 11.1307 82.8556 11.196 82.4076 11.196C81.9036 11.196 81.4369 11.1213 81.0076 10.972C80.5876 10.8227 80.2236 10.608 79.9156 10.328C79.6169 10.048 79.3883 9.70267 79.2296 9.292C79.0803 8.88133 79.0243 8.41 79.0616 7.878H79.9436ZM93.3369 11H86.8829C86.8922 10.5147 86.9762 10.0853 87.1349 9.712C87.2936 9.33867 87.5036 9.00267 87.7649 8.704C88.0262 8.40533 88.3202 8.13467 88.6469 7.892C88.9736 7.64 89.3096 7.402 89.6549 7.178C90.0002 6.94467 90.3409 6.71133 90.6769 6.478C91.0222 6.23533 91.3302 5.97867 91.6009 5.708C91.8716 5.43733 92.0722 5.162 92.2029 4.882C92.3429 4.59267 92.4129 4.252 92.4129 3.86C92.4129 3.54267 92.3522 3.26267 92.2309 3.02C92.1189 2.768 91.9602 2.558 91.7549 2.39C91.5589 2.21267 91.3256 2.082 91.0549 1.998C90.7936 1.90467 90.5136 1.858 90.2149 1.858C89.8136 1.858 89.4682 1.93267 89.1789 2.082C88.8989 2.23133 88.6702 2.432 88.4929 2.684C88.3156 2.936 88.1849 3.22533 88.1009 3.552C88.0262 3.87867 87.9936 4.224 88.0029 4.588H87.1209C87.1116 4.084 87.1676 3.622 87.2889 3.202C87.4196 2.77267 87.6156 2.404 87.8769 2.096C88.1382 1.788 88.4649 1.55 88.8569 1.382C89.2582 1.20467 89.7249 1.116 90.2569 1.116C90.6862 1.116 91.0829 1.17667 91.4469 1.298C91.8202 1.41 92.1422 1.58267 92.4129 1.816C92.6929 2.04 92.9076 2.32467 93.0569 2.67C93.2156 3.01533 93.2949 3.41667 93.2949 3.874C93.2949 4.28467 93.2249 4.658 93.0849 4.994C92.9542 5.33 92.7722 5.638 92.5389 5.918C92.3149 6.198 92.0536 6.45933 91.7549 6.702C91.4656 6.93533 91.1576 7.15467 90.8309 7.36C90.5976 7.51867 90.3222 7.696 90.0049 7.892C89.6876 8.07867 89.3796 8.28867 89.0809 8.522C88.7916 8.75533 88.5349 9.012 88.3109 9.292C88.0869 9.56267 87.9469 9.86133 87.8909 10.188H93.3369V11Z" fill="white"/>
</svg>
